<svg xmlns="http://www.w3.org/2000/svg" viewBox="0 0 300.86 162.6"><defs><style>.cls-1{fill:#7b489c;}</style></defs><g id="Layer_2" data-name="Layer 2"><g id="Layer_1-2" data-name="Layer 1"><polygon class="cls-1" points="240.43 0 208.79 0 269.23 81.3 208.79 162.6 240.43 162.6 300.86 81.3 240.43 0"/><polygon class="cls-1" points="60.43 0 0 81.3 60.43 162.6 92.06 162.6 31.63 81.3 92.06 0 60.43 0"/><path class="cls-1" d="M180.68,131.46s-4.84,0-11.55,0v-8.92h41.08l.16,0c2.13-.27,2.15-2.34,2.16-3.33,0-.6,0-1.47,0-2.59,0-2.23,0-5.41,0-9.24,0-7.66,0-17.9,0-28.23,0-9.66,0-41.34-.1-43.32a2.47,2.47,0,0,0-2.47-2.4H204a66.72,66.72,0,0,0,6.15-9.5c3.38-8.56-15.67,8-15,7.46-.73.65-1.45,1.34-2.18,2H99.79l-.31,0c-2.13.28-2.15,2.27-2.16,3.33,0,.6,0,1.48,0,2.6,0,2.22,0,5.41,0,9.24,0,7.65,0,17.89,0,28.22,0,9.66,0,41.33.1,43.32a2.46,2.46,0,0,0,2.47,2.4h40.11v8.9c-6.76,0-11.63,0-11.62.09s-.14,3,.07,3h52.32a.07.07,0,0,0,.07-.07C180.68,134.41,180.89,131.45,180.68,131.46Zm26.95-13.84H163.19a7.93,7.93,0,0,0,1.94-5.36h0a7.71,7.71,0,0,0-4.52-7.27h47.07C207.66,110.56,207.65,115,207.63,117.62Zm-45.31-5.36a5.08,5.08,0,0,1-5.4,5.26h0a5.26,5.26,0,1,1,5.4-5.26Zm-60.1-73.93h85.91c-7.31,8-14.64,17.62-21.32,25.21l2.73,2.66c10.1-9.07,21.4-17.76,30.35-27.87h7.75c.07,9.11.08,43.39,0,64.54H102.16C102.12,81.83,102.14,47.65,102.22,38.33Zm0,79.29c0-2.53,0-7,0-12.64h51.08a7.73,7.73,0,0,0-4.52,7.28,7.93,7.93,0,0,0,1.94,5.36Zm64.48,13.84-24.34,0v-8.89h24.34Z"/><path class="cls-1" d="M169,80.21,156.89,91.55c-3-2.35-5.46-4.29-7.67-5.88a6.82,6.82,0,0,0,4.42-.27c4.2-1.57,8.53-6.79,4.46-10.48,0,2.35-2.4,4-4,5.25a7.65,7.65,0,0,0,2.93-6c-2.94-2.37-6.56,1.46-6.78,3.22-.54,2.19,0,2-.31,4.27-.24,1.24-1.3,2.73-2.58,2.72A27.54,27.54,0,0,0,136.8,79.6h-.08c-13.34-1.53-23.21,8-30.41,15l-.76.74L107,96.84l.76-.73c7.28-7,16.33-15.82,28.65-14.43,5.89,1.17,10.1,4.36,19.86,12.09l.71.56,13.47-12.58,1.36,3.71,4.92-11-11.32,4.16Z"/><path class="cls-1" d="M160.76,76.21l1.57-2.62L159.61,71l-2.56,1.64.14.1C158.63,73.3,159.84,75.19,160.76,76.21Z"/><path class="cls-1" d="M163.18,72.7l5.48-5.62L166,64.45l-5.48,5.62.05,0Z"/></g></g></svg>